<mxfile host="app.diagrams.net" modified="2023-04-19T03:41:03.075Z" agent="Mozilla/5.0 (Windows NT 6.1; WOW64) AppleWebKit/537.36 (KHTML, like Gecko) Chrome/104.0.0.0 Safari/537.36" version="21.1.9" etag="Pv0wvp6Glb1enbSjUmPJ" type="github">
  <diagram name="第 1 页" id="qn3Tn2SquWqW-UXo0Z5R">
    <mxGraphModel>
      <root>
        <mxCell id="0" />
        <mxCell id="1" parent="0" />
      </root>
    </mxGraphModel>
  </diagram>
</mxfile>
